<svg width="226" height="73" viewBox="0 0 226 73" fill="none" xmlns="http://www.w3.org/2000/svg">
<g clip-path="url(#clip0_1_76)">
<g clip-path="url(#clip1_1_76)">
<path d="M0.5 0.5V72.5H113.5V0.5H0.5ZM24.5 48.96C24.5 51.48 24.19 53.54 23.57 55.16C22.95 56.77 22.12 58.04 21.08 58.97C20.0469 59.8918 18.8149 60.5626 17.48 60.93C16.13 61.31 14.72 61.5 13.25 61.5H11.33C10.76 61.5 10.14 61.45 9.48 61.36V54.24C9.91 54.29 10.36 54.31 10.83 54.31H12.18C13.41 54.31 14.47 54 15.35 53.38C16.23 52.76 16.67 51.48 16.67 49.53V11.5H24.5V48.96ZM52.5 49.21C52.5 53.17 51.51 56.21 49.54 58.32C47.56 60.44 44.72 61.5 41 61.5C37.28 61.5 34.43 60.44 32.46 58.32C30.49 56.2 29.5 53.17 29.5 49.21V23.79C29.5 19.83 30.49 16.8 32.46 14.68C34.43 12.56 37.28 11.5 41 11.5C44.72 11.5 47.56 12.56 49.54 14.68C51.51 16.8 52.5 19.83 52.5 23.79V49.21ZM78.5 61.5H57.5V11.5H65.36V54.36H78.5V61.5ZM91.43 61.5H83.57V44.93L73.64 11.5H81.85L87.85 34.29L93.85 11.5H101.35L91.43 44.93V61.5ZM104.07 61.5H96.5V53.93H104.07V61.5ZM43.86 19.56C44.57 20.29 44.93 21.53 44.93 23.3V49.7C44.93 51.47 44.57 52.72 43.86 53.44C43.15 54.16 42.19 54.52 41 54.52C39.8 54.52 38.85 54.16 38.14 53.44C37.43 52.71 37.07 51.47 37.07 49.7V23.3C37.07 21.53 37.43 20.28 38.14 19.56C38.85 18.84 39.81 18.48 41 18.48C42.19 18.48 43.15 18.84 43.86 19.56Z" fill="white"/>
</g>
</g>
<g clip-path="url(#clip2_1_76)">
<g clip-path="url(#clip3_1_76)">
<path d="M134.61 11.5C138.79 11.5 141.82 12.45 143.69 14.36C145.56 16.27 146.5 19.15 146.5 23V24.79C146.5 27.36 146.09 29.48 145.26 31.15C144.43 32.82 143.12 34.06 141.32 34.86C143.51 35.67 145.05 36.99 145.95 38.82C146.85 40.65 147.3 42.9 147.3 45.57V49.64C147.3 53.5 146.28 56.44 144.24 58.46C142.2 60.48 139.16 61.5 135.12 61.5H122.5V11.5H134.61ZM130.51 18.64V31.85H133.64C135.14 31.85 136.32 31.47 137.17 30.71C138.02 29.95 138.44 28.57 138.44 26.57V23.78C138.44 21.97 138.11 20.66 137.46 19.85C136.8 19.04 135.77 18.64 134.37 18.64H130.51ZM130.51 39V54.36H135.1C136.46 54.36 137.49 54 138.19 53.29C138.89 52.58 139.25 51.29 139.25 49.43V45.07C139.25 42.74 138.85 41.14 138.05 40.28C137.25 39.42 135.93 38.99 134.08 38.99H130.51V39ZM159.36 32.57H170.5V39.71H159.36V54.35H173.5V61.5H151.5V11.5H173.5V18.64H159.36V32.57ZM204.5 11.5H212.36V54.36H225.5V61.5H204.5V11.5ZM178.5 11.5H186.36V54.36H199.5V61.5H178.5V11.5Z" fill="white"/>
</g>
</g>
<rect x="122.5" y="0.5" width="90" height="2" fill="white"/>
<rect x="122.5" y="70.5" width="103" height="2" fill="white"/>
<defs>
<clipPath id="clip0_1_76">
<rect width="113" height="72" fill="white" transform="translate(0.5 0.5)"/>
</clipPath>
<clipPath id="clip1_1_76">
<rect width="113" height="72" fill="white" transform="translate(0.5 0.5)"/>
</clipPath>
<clipPath id="clip2_1_76">
<rect width="103" height="50" fill="white" transform="translate(122.5 11.5)"/>
</clipPath>
<clipPath id="clip3_1_76">
<rect width="225" height="72" fill="white" transform="translate(0.5 0.5)"/>
</clipPath>
</defs>
</svg>
